#define dummy_width 16
#define dummy_height 16
static char dummy_bits[] = {
0x1f,0x00,0x3f,0x00,0x33,0x00,0xb3,0x3b,0xbf,0x3b,0x1f,0x1b,0x03,0x1f,0x03,
0x0e,0xdb,0xff,0xe4,0x27,0x84,0x27,0x84,0x24,0xb4,0x24,0xa4,0x24,0xa4,0x24,
0x18,0x23 };