#define dummy_width 16
#define dummy_height 16
static char dummy_bits[] = {
0x1f,0x00,0x3f,0x00,0x33,0x00,0xb3,0x3b,0xbf,0x3b,0x1f,0x1b,0x03,0x1f,0x03,
0x0e,0xc3,0xff,0xc0,0x27,0xc0,0x23,0x40,0x22,0xc0,0x23,0x40,0x22,0x40,0x22,
0x40,0xfa };