#define dummy_width 16
#define dummy_height 16
static char dummy_bits[] = {
0x1f,0x00,0x1f,0x00,0x31,0x00,0xb3,0x3b,0xbf,0x19,0x0f,0x1b,0x01,0x1f,0x03,
0x0e,0xdf,0x8f,0xe4,0x9f,0xa4,0x9b,0x1c,0xa9,0x24,0xa9,0x24,0xc9,0x24,0xc9,
0x9c,0x8b };
