#define dummy_width 16
#define dummy_height 16
static char dummy_bits[] = {
0x1f,0x00,0x3f,0x00,0x33,0x00,0xb3,0x3b,0xbf,0x3b,0x1f,0x1b,0x03,0x1f,0x03,
0x0e,0xdf,0xfe,0xc2,0x27,0xc2,0x23,0xc2,0x22,0x4e,0x23,0x42,0x23,0x42,0x22,
0x42,0x22 };