#define dummy_width 16
#define dummy_height 16
static char dummy_bits[] = {
0x1f,0x00,0x3f,0x00,0x33,0x00,0xb3,0x3b,0xbf,0x3b,0x1f,0x1b,0x03,0x1f,0x03,
0x0e,0xff,0xff,0xc8,0x17,0x88,0x17,0x88,0x10,0x88,0x70,0x88,0x10,0x88,0x14,
0x3e,0xf3 };