#define dummy_width 16
#define dummy_height 16
static char dummy_bits[] = {
0x1f,0x00,0x3f,0x00,0x33,0x00,0xb3,0x3b,0xbf,0x3b,0x1f,0x1b,0x03,0x1f,0x03,
0x0e,0xe3,0x6f,0xf6,0x97,0xb6,0x97,0xaa,0x94,0xaa,0x93,0xa2,0x90,0xa2,0x60,
0xa2,0xc0 };