#define dummy_width 16
#define dummy_height 16
static char dummy_bits[] = {
0x1f,0x00,0x3f,0x00,0x33,0x00,0xb3,0x3b,0xbf,0x3b,0x1f,0x1b,0x03,0x1f,0x03,
0x0e,0xcf,0x7f,0xdc,0xff,0xfc,0xef,0xac,0x39,0x8c,0x71,0x8c,0xed,0x8c,0xfd,
0x8c,0x79 };