#define dummy_width 16
#define dummy_height 16
static char dummy_bits[] = {
0x1f,0x00,0x3f,0x00,0x33,0x00,0xb3,0x3b,0xbf,0x3b,0x1f,0x1b,0x03,0x1f,0x03,
0x0e,0xcf,0x8f,0xd2,0x8f,0xd2,0x53,0x52,0x20,0x4e,0x20,0x42,0x50,0x42,0x8a,
0x82,0x89 };