#define dummy_width 16
#define dummy_height 16
static char dummy_bits[] = {
0x1f,0x00,0x3f,0x00,0x11,0x00,0xb3,0x3b,0xbf,0x39,0x1f,0x1b,0x01,0x1f,0x03,
0x0e,0xdb,0x9f,0xe4,0x57,0x84,0x57,0x88,0x34,0x90,0x33,0xa0,0x50,0xa4,0x50,
0x98,0x90 };
